<svg width="316" height="316" viewBox="0 0 316 316" fill="none" xmlns="http://www.w3.org/2000/svg">
<path d="M158 45.1429C128.068 45.1429 99.3628 57.0331 78.1979 78.1979C57.0331 99.3628 45.1429 128.068 45.1429 158C45.1429 187.932 57.0331 216.637 78.1979 237.802C99.3628 258.967 128.068 270.857 158 270.857C187.932 270.857 216.637 258.967 237.802 237.802C258.967 216.637 270.857 187.932 270.857 158C270.857 128.068 258.967 99.3628 237.802 78.1979C216.637 57.0331 187.932 45.1429 158 45.1429ZM316 158C316 199.904 299.354 240.092 269.723 269.723C240.092 299.354 199.904 316 158 316C116.096 316 75.9079 299.354 46.2771 269.723C16.6464 240.092 0 199.904 0 158C0 116.096 16.6464 75.9079 46.2771 46.2771C75.9079 16.6464 116.096 0 158 0C199.904 0 240.092 16.6464 269.723 46.2771C299.354 75.9079 316 116.096 316 158Z" fill="#F1B434"/>
</svg>
