<svg width="328" height="419" viewBox="0 0 328 419" fill="none" xmlns="http://www.w3.org/2000/svg">
<path d="M92.2867 0C70.6002 0 53.0055 17.5947 53.0055 39.2812V78.5625V101.886V144.031C53.0055 151.233 47.1133 157.125 39.9117 157.125C32.7102 157.125 26.818 151.233 26.818 144.031V122.181L19.4528 128.319C7.50471 138.303 0.630493 153.033 0.630493 168.582V199.68C0.630493 230.777 14.4608 260.238 38.3569 280.124L79.193 314.25V392.812C79.193 407.297 90.8955 419 105.38 419H236.318C250.803 419 262.505 407.297 262.505 392.812V306.639C300.887 291.09 327.974 253.446 327.974 209.5V144.031V130.938V117.844C327.974 96.1572 310.38 78.5625 288.693 78.5625C278.545 78.5625 269.38 82.4088 262.424 88.6283C260.869 68.333 243.929 52.375 223.224 52.375C213.077 52.375 203.911 56.2213 196.955 62.4408C195.4 42.1455 178.46 26.1875 157.755 26.1875C147.608 26.1875 138.442 30.0338 131.486 36.2533C129.931 15.958 112.991 0 92.2867 0Z" fill="#F1B434"/>
</svg>
