<svg width="699" height="419" viewBox="0 0 699 419" fill="none" xmlns="http://www.w3.org/2000/svg">
<path d="M188.671 32.3309C188.528 14.9813 174.36 1.04425 157.011 1.18676C139.661 1.32927 125.724 15.4971 125.866 32.8468L127.028 174.313C120.306 168.402 111.484 164.863 101.828 164.942C81.9662 165.105 65.8413 180.547 64.5097 200.029C57.7871 194.039 48.8863 190.5 39.2302 190.579C18.4263 190.75 1.68628 207.768 1.85716 228.572L2.06351 253.693L2.4762 303.937C2.9321 359.44 48.2851 404.054 103.788 403.598L192.578 402.869C224.137 402.609 254.337 389.8 276.528 367.32C294.28 349.274 304.129 324.933 303.922 299.655L303.627 263.778C303.49 247.056 292.461 233.015 277.348 228.193L259.222 286.832C257.157 293.444 250.122 297.192 243.51 295.126C236.898 293.061 233.15 286.026 235.216 279.414L251.582 226.52L251.504 226.521L300.589 65.9563C305.634 49.3491 296.305 31.8394 279.697 26.7156C263.089 21.5918 245.58 30.9999 240.456 47.6077L190.15 212.5L188.671 32.3309Z" fill="#33C2BB"/>
<path d="M463.287 0C441.6 0 424.005 17.5947 424.005 39.2812V78.5625V101.886V144.031C424.005 151.233 418.113 157.125 410.912 157.125C403.71 157.125 397.818 151.233 397.818 144.031V122.181L390.453 128.319C378.505 138.303 371.63 153.033 371.63 168.582V199.68C371.63 230.777 385.461 260.238 409.357 280.124L450.193 314.25V392.812C450.193 407.297 461.896 419 476.38 419H607.318C621.803 419 633.505 407.297 633.505 392.812V306.639C671.887 291.09 698.974 253.446 698.974 209.5V144.031V130.938V117.844C698.974 96.1572 681.38 78.5625 659.693 78.5625C649.545 78.5625 640.38 82.4088 633.424 88.6283C631.869 68.333 614.929 52.375 594.224 52.375C584.077 52.375 574.911 56.2213 567.955 62.4408C566.4 42.1455 549.46 26.1875 528.755 26.1875C518.608 26.1875 509.442 30.0338 502.486 36.2533C500.931 15.958 483.991 0 463.287 0Z" fill="#F1B434"/>
</svg>
