<svg width="303" height="403" viewBox="0 0 303 403" fill="none" xmlns="http://www.w3.org/2000/svg">
<path d="M187.671 31.3309C187.528 13.9813 173.36 0.0442528 156.011 0.186761C138.661 0.32927 124.724 14.4971 124.866 31.8468L126.028 173.313C119.306 167.402 110.484 163.863 100.828 163.942C80.9662 164.105 64.8414 179.547 63.5097 199.029C56.7871 193.039 47.8863 189.5 38.2302 189.579C17.4263 189.75 0.686286 206.768 0.857167 227.572L1.06351 252.693L1.47621 302.937C1.93211 358.44 47.2851 403.054 102.788 402.598L191.578 401.869C223.137 401.609 253.337 388.8 275.528 366.32C293.28 348.274 303.129 323.933 302.922 298.655L302.627 262.778C302.49 246.056 291.461 232.015 276.348 227.193L258.222 285.832C256.157 292.444 249.122 296.192 242.51 294.126C235.898 292.061 232.15 285.026 234.216 278.414L250.582 225.52L250.504 225.521L299.589 64.9563C304.634 48.3491 295.305 30.8394 278.697 25.7156C262.089 20.5918 244.58 29.9999 239.456 46.6077L189.15 211.5L187.671 31.3309Z" fill="#33C2BB"/>
</svg>
