<svg width="721" height="317" viewBox="0 0 721 317" fill="none" xmlns="http://www.w3.org/2000/svg">
<path d="M158 45.1429C128.068 45.1429 99.3628 57.0331 78.1979 78.1979C57.0331 99.3628 45.1429 128.068 45.1429 158C45.1429 187.932 57.0331 216.637 78.1979 237.802C99.3628 258.967 128.068 270.857 158 270.857C187.932 270.857 216.637 258.967 237.802 237.802C258.967 216.637 270.857 187.932 270.857 158C270.857 128.068 258.967 99.3628 237.802 78.1979C216.637 57.0331 187.932 45.1429 158 45.1429ZM316 158C316 199.904 299.354 240.092 269.723 269.723C240.092 299.354 199.904 316 158 316C116.096 316 75.9079 299.354 46.2771 269.723C16.6464 240.092 0 199.904 0 158C0 116.096 16.6464 75.9079 46.2771 46.2771C75.9079 16.6464 116.096 0 158 0C199.904 0 240.092 16.6464 269.723 46.2771C299.354 75.9079 316 116.096 316 158Z" fill="#F1B434"/>
<path d="M715.765 37.0602C723.739 27.4632 722.469 13.2088 712.872 5.23481C703.275 -2.73917 689.021 -1.46898 681.047 8.12802L585.5 122.798L489.953 8.12802C481.979 -1.46898 467.725 -2.73917 458.128 5.23481C448.531 13.2088 447.261 27.4632 455.235 37.0602L556.074 158.081L455.235 279.102C447.261 288.699 448.531 302.954 458.128 310.928C467.725 318.902 481.979 317.631 489.953 308.034L585.5 193.364L681.047 308.034C689.021 317.631 703.275 318.902 712.872 310.928C722.469 302.954 723.739 288.699 715.765 279.102L614.926 158.081L715.765 37.0602Z" fill="#33C2BB"/>
</svg>
