<svg width="271" height="317" viewBox="0 0 271 317" fill="none" xmlns="http://www.w3.org/2000/svg">
<path d="M265.765 37.0602C273.739 27.4632 272.469 13.2088 262.872 5.23481C253.275 -2.73917 239.021 -1.46898 231.047 8.12802L135.5 122.798L39.9534 8.12802C31.9794 -1.46898 17.725 -2.73917 8.12802 5.23481C-1.46898 13.2088 -2.73917 27.4632 5.23481 37.0602L106.074 158.081L5.23481 279.102C-2.73917 288.699 -1.46898 302.954 8.12802 310.928C17.725 318.902 31.9794 317.631 39.9534 308.034L135.5 193.364L231.047 308.034C239.021 317.631 253.275 318.902 262.872 310.928C272.469 302.954 273.739 288.699 265.765 279.102L164.926 158.081L265.765 37.0602Z" fill="#33C2BB"/>
</svg>
